# xmcd
#
# Track frame offsets: 
#        150
#        18778
#        37878
#        71286
#        83270
#        105250
#        121942
#        162251
#        195630
#        282956
#
# Disc length: 4076 seconds
#
# Revision: 5
# Processed by: cddbd v1.5.2PL0 Copyright (c) Steve Scherf et al.
# Submitted via: ExactAudioCopyFreeDBPlugin 1.0
#
DISCID=690fea0a
DTITLE=Aretha Franklin - Live at Fillmore West
DYEAR=2006
DGENRE=Soul
TTITLE0=Respect
TTITLE1=Love the One You're With
TTITLE2=Bridge Over Troubled Water
TTITLE3=Eleanor Rigby
TTITLE4=Make It with You
TTITLE5=Don't Play That Song
TTITLE6=Dr. Feelgood
TTITLE7=Spirit in the Dark
TTITLE8=Spirit in the Dark (Reprise with Ray Charles)
TTITLE9=Reach Out and Touch (Somebody's Hand)
EXTD=
EXTT0=
EXTT1=
EXTT2=
EXTT3=
EXTT4=
EXTT5=
EXTT6=
EXTT7=
EXTT8=
EXTT9=
PLAYORDER=
